<svg aria-hidden="true" style="position: absolute; width: 0; height: 0; overflow: hidden;" version="1.1" xmlns="http://www.w3.org/2000/svg" xmlns:xlink="http://www.w3.org/1999/xlink">
<defs>
<symbol id="header-burger" viewBox="0 0 44 32">
<path d="M0.668 30.054v-2.667h42.667v2.667h-42.667zM0.668 17.334v-2.667h42.667v2.667h-42.667zM0.668 4.614v-2.667h42.667v2.667h-42.667z"></path>
<symbol id="header-cross" viewBox="0 0 32 32">
<path stroke-linejoin="round" stroke-linecap="round" stroke-miterlimit="4" stroke-width="3.5556" d="M1.778 1.778l28.444 28.444"></path>
<path stroke-linejoin="round" stroke-linecap="round" stroke-miterlimit="4" stroke-width="3.5556" d="M30.222 1.778l-28.444 28.444"></path>
</symbol>
<symbol id="icon-arrow" viewBox="0 0 32 32">
<path d="M1.067 14.933c-0.589 0-1.067 0.478-1.067 1.067s0.478 1.067 1.067 1.067v0-2.133zM31.68 16.747c0.427-0.427 0.427-1.067 0-1.493l-6.827-6.827c-0.188-0.322-0.531-0.535-0.925-0.535-0.589 0-1.067 0.478-1.067 1.067 0 0.421 0.244 0.785 0.598 0.959l0.006 0.003 5.973 6.080-6.080 6.080c-0.133 0.176-0.213 0.399-0.213 0.64 0 0.589 0.478 1.067 1.067 1.067 0.241 0 0.464-0.080 0.643-0.215l-0.003 0.002 6.827-6.827zM1.067 17.067h29.867v-2.133h-29.867v2.133z"></path>
</symbol>
<symbol id="icon-Vector" viewBox="0 0 32 32">
<path stroke-linejoin="round" stroke-linecap="round" stroke-miterlimit="4" stroke-width="3.5556" d="M3.2 28.978l25.422-25.956M28.622 3.022h-23.644M28.8 3.022v24.178"></path>
</symbol>
<symbol id="icon-user-01" viewBox="0 0 32 32">
<path stroke-linejoin="round" stroke-linecap="round" stroke-miterlimit="4" stroke-width="2.6667" d="M26.667 28c0-1.867 0-2.667-0.267-3.6-0.537-1.653-1.814-2.93-3.429-3.456l-0.038-0.011c-0.8-0.267-1.733-0.267-3.6-0.267h-6.667c-1.867 0-2.667 0-3.6 0.267-1.653 0.537-2.93 1.814-3.456 3.429l-0.011 0.038c-0.267 0.933-0.267 1.733-0.267 3.6M16 16c3.314 0 6-2.686 6-6s-2.686-6-6-6v0c-3.314 0-6 2.686-6 6s2.686 6 6 6v0z"></path>
</symbol>
<symbol id="icon-message-02" viewBox="0 0 32 32">
<path stroke-linejoin="round" stroke-linecap="round" stroke-miterlimit="4" stroke-width="2.6667" d="M8.126 14.972c-0.083-0.534-0.126-1.081-0.126-1.638 0-5.891 4.807-10.667 10.737-10.667s10.737 4.776 10.737 10.667c0 1.331-0.245 2.605-0.693 3.779-0.093 0.244-0.14 0.366-0.161 0.461s-0.029 0.161-0.031 0.257c-0.002 0.097 0.011 0.205 0.037 0.42l0.537 4.36c0.058 0.472 0.087 0.708 0.009 0.88-0.069 0.15-0.191 0.27-0.343 0.335-0.173 0.075-0.409 0.040-0.879-0.029l-4.247-0.623c-0.222-0.033-0.333-0.049-0.434-0.048-0.1 0.001-0.169 0.008-0.267 0.028s-0.225 0.068-0.477 0.163c-1.178 0.441-2.454 0.683-3.787 0.683-0.558 0-1.105-0.042-1.64-0.124M10.175 29.333c3.953 0 7.158-3.283 7.158-7.333s-3.205-7.333-7.158-7.333c-3.953 0-7.158 3.283-7.158 7.333 0 0.814 0.13 1.597 0.369 2.329 0.101 0.309 0.152 0.464 0.168 0.57 0.017 0.11 0.020 0.172 0.014 0.284-0.006 0.107-0.033 0.227-0.086 0.469l-0.815 3.682 3.993-0.545c0.218-0.030 0.327-0.045 0.422-0.044 0.1 0.001 0.153 0.006 0.252 0.026 0.093 0.019 0.232 0.067 0.51 0.165 0.731 0.258 1.516 0.398 2.332 0.398z"></path>
</symbol>
<symbol id="icon-brush" viewBox="0 0 31 32">
<path stroke-linejoin="round" stroke-linecap="round" stroke-miterlimit="4" stroke-width="2.7826" d="M1.391 29.216c2.783 0 6.411 0.475 8.313-1.426s1.902-4.985 0-6.887c-1.902-1.902-4.985-1.902-6.887 0s0 5.53-1.426 8.313z"></path>
<path stroke-linejoin="round" stroke-linecap="round" stroke-miterlimit="4" stroke-width="2.7826" d="M9.739 20.868c-0.684-0.684-1.026-1.026-1.219-1.384-0.463-0.859-0.444-1.897 0.053-2.737 0.207-0.35 0.562-0.679 1.271-1.336l13.729-12.712c1.209-1.12 3.087-1.084 4.253 0.082s1.202 3.043 0.082 4.253l-12.713 13.729c-0.657 0.709-0.985 1.064-1.336 1.271-0.84 0.496-1.879 0.516-2.737 0.053-0.358-0.193-0.7-0.535-1.384-1.219z"></path>
</symbol>
<symbol id="icon-hourglass-04" viewBox="0 0 32 32">
<path stroke-linejoin="round" stroke-linecap="round" stroke-miterlimit="4" stroke-width="2.6667" d="M24.267 2.667h-16.533c-0.533 0-1.067 0.533-1.067 1.067 0 3.6 1.333 7.067 4 9.6l1.6 1.733 0.267 0.267c0.4 0.533 0.4 1.067 0 1.6l-2 2c-2.317 2.334-3.777 5.521-3.866 9.050l-0 0.017c0 0.667 0.533 1.2 1.067 1.2h16.533c0.533 0 1.067-0.533 1.067-1.067 0-3.6-1.333-7.067-4-9.467l-1.6-1.733-0.267-0.267c-0.166-0.22-0.267-0.498-0.267-0.8s0.1-0.58 0.269-0.803l-0.002 0.003 2-2c2.317-2.334 3.777-5.521 3.866-9.050l0-0.017c0-0.667-0.533-1.2-1.067-1.2z"></path>
</symbol>
<symbol id="icon-arrow-up" viewBox="0 0 32 32">
<path stroke-linejoin="miter" stroke-linecap="round" stroke-miterlimit="4" stroke-width="2.6667" d="M24 20l-8-8-8 8"></path>
</symbol>
<symbol id="icon-arrow-down" viewBox="0 0 32 32">
<path stroke-linejoin="miter" stroke-linecap="round" stroke-miterlimit="4" stroke-width="2.6667" d="M24 12l-8 8-8-8"></path>
</symbol>
<symbol id="phone" viewBox="0 0 32 32">
<path stroke-linejoin="round" stroke-linecap="round" stroke-miterlimit="4" stroke-width="1.3333" d="M3.067 9.067c0 11.046 8.954 20 20 20v0h2.933c1.694 0 3.067-1.373 3.067-3.067v0-1.867c0-0.667-0.533-1.333-1.2-1.333l-5.867-1.6c-0.667 0-1.333 0-1.6 0.533l-1.333 1.733c-0.24 0.375-0.655 0.62-1.127 0.62-0.17 0-0.333-0.032-0.483-0.090l0.009 0.003c-4.376-1.628-7.779-4.988-9.429-9.224l-0.037-0.109c-0.055-0.141-0.087-0.303-0.087-0.473 0-0.472 0.245-0.886 0.615-1.123l0.005-0.003 1.733-1.333c0.4-0.4 0.667-0.933 0.533-1.6l-1.467-6c-0.13-0.687-0.726-1.2-1.442-1.2-0.009 0-0.017 0-0.026 0l0.001-0h-1.867c-0.041-0.002-0.088-0.003-0.136-0.003-1.62 0-2.933 1.313-2.933 2.933 0 0.048 0.001 0.096 0.003 0.143l-0-0.007v3.067z"></path>
</symbol>
<symbol id="letter" viewBox="0 0 32 32">
<path stroke-linejoin="round" stroke-linecap="round" stroke-miterlimit="4" stroke-width="1.3333" d="M29.067 9.067v13.867c0 1.694-1.373 3.067-3.067 3.067v0h-20c-1.694 0-3.067-1.373-3.067-3.067v-13.867M29.067 9.067c0-1.694-1.373-3.067-3.067-3.067v0h-20c-0.041-0.002-0.088-0.003-0.136-0.003-1.62 0-2.933 1.313-2.933 2.933 0 0.048 0.001 0.096 0.003 0.143l-0-0.007M29.067 9.067v0.267c0 0.015 0 0.033 0 0.050 0 1.102-0.581 2.068-1.454 2.609l-0.013 0.008-10 6c-0.456 0.283-1.008 0.45-1.6 0.45s-1.145-0.168-1.613-0.458l0.013 0.008-10-6c-0.812-0.531-1.34-1.435-1.34-2.463 0-0.072 0.003-0.143 0.008-0.213l-0.001 0.009v-0.267"></path>
</symbol>
<symbol id="location" viewBox="0 0 32 32">
<path stroke-linejoin="round" stroke-linecap="round" stroke-miterlimit="4" stroke-width="1.3333" d="M20 14c0 2.209-1.791 4-4 4s-4-1.791-4-4v0c0-2.209 1.791-4 4-4s4 1.791 4 4v0 0z"></path>
<path stroke-linejoin="round" stroke-linecap="round" stroke-miterlimit="4" stroke-width="1.3333" d="M26 14c0 9.467-10 15.067-10 15.067s-10-5.6-10-15.067c0-5.523 4.477-10 10-10s10 4.477 10 10v0 0z"></path>
</symbol>
<symbol id="success-filled" viewBox="0 0 32 32">
<path d="M16 2c7.732 0 14 6.268 14 14s-6.268 14-14 14v0c-7.732 0-14-6.268-14-14s6.268-14 14-14v0zM14.2 18.8l-3-3.2c-0.23-0.23-0.549-0.373-0.9-0.373-0.703 0-1.273 0.57-1.273 1.273 0 0.351 0.142 0.67 0.373 0.9l4 4c0.221 0.25 0.542 0.406 0.9 0.406s0.679-0.157 0.899-0.405l0.001-0.001 8-8.2c0.248-0.222 0.404-0.543 0.404-0.9 0-0.665-0.539-1.204-1.204-1.204-0.308 0-0.588 0.115-0.801 0.305l0.001-0.001-7.4 7.4z"></path>
</symbol>
<symbol id="icon-arrow-narrow-right" width="24" height="24" viewBox="0 0 24 24" fill="none">
<path d="M20 12H4.00001" stroke="#292929" stroke-width="2" stroke-linecap="round" stroke-linejoin="round" />
  <path d="M10 18L4 12L10 6" stroke="#292929" stroke-width="2" stroke-linecap="round" stroke-linejoin="round" />
</symbol>
<symbol id="icon-arrow-narrow-left" width="24" height="24" viewBox="0 0 24 24" fill="none">
<path d="M4 12H20" stroke="#292929" stroke-width="2" stroke-linecap="round" stroke-linejoin="round" />
  <path d="M14 6L20 12L14 18" stroke="#292929" stroke-width="2" stroke-linecap="round" stroke-linejoin="round" />
</symbol>
</defs>
</svg>



