<svg aria-hidden="true" style="position: absolute; width: 0; height: 0; overflow: hidden;" version="1.1" xmlns="http://www.w3.org/2000/svg" xmlns:xlink="http://www.w3.org/1999/xlink">
<defs>
<symbol id="phone" viewBox="0 0 32 32">
<path fill="none" stroke="#00b068" style="stroke: var(--color1, #00b068)" stroke-linejoin="round" stroke-linecap="round" stroke-miterlimit="4" stroke-width="1.3333" d="M3.067 9.067c0 11.046 8.954 20 20 20v0h2.933c1.694 0 3.067-1.373 3.067-3.067v0-1.867c0-0.667-0.533-1.333-1.2-1.333l-5.867-1.6c-0.667 0-1.333 0-1.6 0.533l-1.333 1.733c-0.24 0.375-0.655 0.62-1.127 0.62-0.17 0-0.333-0.032-0.483-0.090l0.009 0.003c-4.376-1.628-7.779-4.988-9.429-9.224l-0.037-0.109c-0.055-0.141-0.087-0.303-0.087-0.473 0-0.472 0.245-0.886 0.615-1.123l0.005-0.003 1.733-1.333c0.4-0.4 0.667-0.933 0.533-1.6l-1.467-6c-0.13-0.687-0.726-1.2-1.442-1.2-0.009 0-0.017 0-0.026 0l0.001-0h-1.867c-0.041-0.002-0.088-0.003-0.136-0.003-1.62 0-2.933 1.313-2.933 2.933 0 0.048 0.001 0.096 0.003 0.143l-0-0.007v3.067z"></path>
</symbol>
<symbol id="letter" viewBox="0 0 32 32">
<path fill="none" stroke="#00b068" style="stroke: var(--color1, #00b068)" stroke-linejoin="round" stroke-linecap="round" stroke-miterlimit="4" stroke-width="1.3333" d="M29.067 9.067v13.867c0 1.694-1.373 3.067-3.067 3.067v0h-20c-1.694 0-3.067-1.373-3.067-3.067v-13.867M29.067 9.067c0-1.694-1.373-3.067-3.067-3.067v0h-20c-0.041-0.002-0.088-0.003-0.136-0.003-1.62 0-2.933 1.313-2.933 2.933 0 0.048 0.001 0.096 0.003 0.143l-0-0.007M29.067 9.067v0.267c0 0.015 0 0.033 0 0.050 0 1.102-0.581 2.068-1.454 2.609l-0.013 0.008-10 6c-0.456 0.283-1.008 0.45-1.6 0.45s-1.145-0.168-1.613-0.458l0.013 0.008-10-6c-0.812-0.531-1.34-1.435-1.34-2.463 0-0.072 0.003-0.143 0.008-0.213l-0.001 0.009v-0.267"></path>
</symbol>
<symbol id="location" viewBox="0 0 32 32">
<path fill="none" stroke="#00b068" style="stroke: var(--color1, #00b068)" stroke-linejoin="round" stroke-linecap="round" stroke-miterlimit="4" stroke-width="1.3333" d="M20 14c0 2.209-1.791 4-4 4s-4-1.791-4-4v0c0-2.209 1.791-4 4-4s4 1.791 4 4v0 0z"></path>
<path fill="none" stroke="#00b068" style="stroke: var(--color1, #00b068)" stroke-linejoin="round" stroke-linecap="round" stroke-miterlimit="4" stroke-width="1.3333" d="M26 14c0 9.467-10 15.067-10 15.067s-10-5.6-10-15.067c0-5.523 4.477-10 10-10s10 4.477 10 10v0 0z"></path>
</symbol>
<symbol id="success-filled" viewBox="0 0 32 32">
<path fill="#00b068" style="fill: var(--color1, #00b068)" d="M16 2c7.732 0 14 6.268 14 14s-6.268 14-14 14v0c-7.732 0-14-6.268-14-14s6.268-14 14-14v0zM14.2 18.8l-3-3.2c-0.23-0.23-0.549-0.373-0.9-0.373-0.703 0-1.273 0.57-1.273 1.273 0 0.351 0.142 0.67 0.373 0.9l4 4c0.221 0.25 0.542 0.406 0.9 0.406s0.679-0.157 0.899-0.405l0.001-0.001 8-8.2c0.248-0.222 0.404-0.543 0.404-0.9 0-0.665-0.539-1.204-1.204-1.204-0.308 0-0.588 0.115-0.801 0.305l0.001-0.001-7.4 7.4z"></path>
</symbol>
<symbol id="cross" viewBox="0 0 32 32">
<path stroke-linejoin="round" stroke-linecap="round" stroke-miterlimit="4" stroke-width="2.6667" d="M24 8l-16 16M8 8l16 16"></path>
</symbol>
<symbol id="icon-arrow-down" viewBox="0 0 32 32">
<path stroke-linejoin="miter" stroke-linecap="round" stroke-miterlimit="4" stroke-width="2" d="M22 13l-6 6-6-6"></path>
</symbol>
<symbol id="icon-arrow-up" viewBox="0 0 32 32">
<path stroke-linejoin="miter" stroke-linecap="round" stroke-miterlimit="4" stroke-width="2" d="M22 19l-6-6-6 6"></path>
</symbol>

<symbol id="icon-user-01" viewBox="0 0 32 32">
<path fill="none" stroke="#00b068" style="stroke: var(--color1, #00b068)" stroke-linejoin="round" stroke-linecap="round" stroke-miterlimit="4" stroke-width="2.6667" d="M26.667 28c0-1.861 0-2.791-0.23-3.548-0.517-1.705-1.851-3.039-3.556-3.556-0.757-0.23-1.687-0.23-3.548-0.23h-6.667c-1.861 0-2.791 0-3.548 0.23-1.705 0.517-3.038 1.851-3.556 3.556-0.23 0.757-0.23 1.687-0.23 3.548"></path>
<path fill="none" stroke="#00b068" style="stroke: var(--color1, #00b068)" stroke-linejoin="round" stroke-linecap="round" stroke-miterlimit="4" stroke-width="2.6667" d="M16 16c3.314 0 6-2.686 6-6s-2.686-6-6-6c-3.314 0-6 2.686-6 6s2.686 6 6 6z"></path>
</symbol></defs>
</svg>
