<svg aria-hidden="true" style="position: absolute; width: 0; height: 0; overflow: hidden;" version="1.1" xmlns="http://www.w3.org/2000/svg" xmlns:xlink="http://www.w3.org/1999/xlink">
<defs>
<symbol id="icon-success-filled" viewBox="0 0 32 32">
<path d="M16 2c7.732 0 14 6.268 14 14s-6.268 14-14 14v0c-7.732 0-14-6.268-14-14s6.268-14 14-14v0zM14.2 18.8l-3-3.2c-0.23-0.23-0.549-0.373-0.9-0.373-0.703 0-1.273 0.57-1.273 1.273 0 0.351 0.142 0.67 0.373 0.9l4 4c0.221 0.25 0.542 0.406 0.9 0.406s0.679-0.157 0.899-0.405l0.001-0.001 8-8.2c0.248-0.222 0.404-0.543 0.404-0.9 0-0.665-0.539-1.204-1.204-1.204-0.308 0-0.588 0.115-0.801 0.305l0.001-0.001-7.4 7.4z"></path>
</symbol>
<symbol id="icon-burger" viewBox="0 0 32 32">
<path d="M5.3 23v-1.3h21.4v1.3h-21.4zM5.3 16.7v-1.4h21.4v1.4h-21.4zM5.3 10.3v-1.3h21.4v1.3h-21.4z"></path>
</symbol>
<symbol id="icon-cross" viewBox="0 0 32 32">
<path stroke-linejoin="round" stroke-linecap="round" stroke-miterlimit="4" stroke-width="2" d="M24 8l-16 16M8 8l16 16"></path>
</symbol>
<symbol id="icon-Arrow" viewBox="0 0 32 32">
<path d="M1.067 14.933c-0.589 0-1.067 0.478-1.067 1.067s0.478 1.067 1.067 1.067v0-2.133zM31.68 16.747c0.427-0.427 0.427-1.067 0-1.493l-6.827-6.827c-0.188-0.322-0.531-0.535-0.925-0.535-0.589 0-1.067 0.478-1.067 1.067 0 0.421 0.244 0.785 0.598 0.959l0.006 0.003 5.973 6.080-6.080 6.080c-0.133 0.176-0.213 0.399-0.213 0.64 0 0.589 0.478 1.067 1.067 1.067 0.241 0 0.464-0.080 0.643-0.215l-0.003 0.002 6.827-6.827zM1.067 17.067h29.867v-2.133h-29.867v2.133z"></path>
</symbol>
<symbol id="icon-Vector" viewBox="0 0 32 32">
<path stroke-linejoin="round" stroke-linecap="round" stroke-miterlimit="4" stroke-width="3.5556" d="M3.2 28.978l25.422-25.956M28.622 3.022h-23.644M28.8 3.022v24.178"></path>
</symbol>
<symbol id="icon-user" viewBox="0 0 32 32">
<path stroke-linejoin="round" stroke-linecap="round" stroke-miterlimit="4" stroke-width="2.6667" d="M26.667 28c0-1.867 0-2.667-0.267-3.6-0.537-1.653-1.814-2.93-3.429-3.456l-0.038-0.011c-0.8-0.267-1.733-0.267-3.6-0.267h-6.667c-1.867 0-2.667 0-3.6 0.267-1.653 0.537-2.93 1.814-3.456 3.429l-0.011 0.038c-0.267 0.933-0.267 1.733-0.267 3.6M16 16c3.314 0 6-2.686 6-6s-2.686-6-6-6v0c-3.314 0-6 2.686-6 6s2.686 6 6 6v0z"></path>
</symbol>
<symbol id="icon-message-chat-circle" viewBox="0 0 32 32">
<path stroke-linejoin="round" stroke-linecap="round" stroke-miterlimit="4" stroke-width="2.6667" d="M8 14.933c-0.077-0.481-0.121-1.036-0.121-1.601 0-5.891 4.776-10.667 10.667-10.667 0.042 0 0.085 0 0.127 0.001l-0.006-0c0.042-0.001 0.092-0.001 0.142-0.001 5.891 0 10.667 4.776 10.667 10.667 0 1.341-0.248 2.625-0.7 3.807l0.025-0.073-0.133 0.533v0.667l0.533 4.4v0.8l-0.4 0.4h-0.8l-4.267-0.667h-1.2c-1.169 0.479-2.525 0.757-3.947 0.757-0.489 0-0.97-0.033-1.441-0.097l0.055 0.006M10 29.333c4 0 7.2-3.333 7.2-7.333s-3.067-7.333-7.067-7.333c-4 0-7.067 3.333-7.067 7.333 0 0.8 0 1.6 0.267 2.267l0.267 0.667v0.667l-0.933 3.733 4-0.533h0.667l0.533 0.133c0.667 0.267 1.467 0.4 2.267 0.4z"></path>
</symbol>
<symbol id="icon-brush" viewBox="0 0 32 32">
<path stroke-linejoin="round" stroke-linecap="round" stroke-miterlimit="4" stroke-width="2.6667" d="M17.067 20l-5.067-5.067M2.667 29.333c2.667 0 6.133 0.4 8-1.333 0.853-0.853 1.381-2.032 1.381-3.333 0-2.604-2.111-4.714-4.714-4.714-1.302 0-2.48 0.528-3.333 1.381v0c-1.733 1.867 0 5.333-1.333 8z"></path>
<path stroke-linejoin="round" stroke-linecap="round" stroke-miterlimit="4" stroke-width="2.6667" d="M10.667 21.333c-0.456-0.388-0.852-0.826-1.185-1.311l-0.015-0.023c-0.225-0.382-0.357-0.842-0.357-1.333s0.133-0.951 0.364-1.346l-0.007 0.013c0.385-0.509 0.824-0.949 1.317-1.321l0.017-0.012 13.067-12c0.519-0.474 1.213-0.765 1.975-0.765 1.62 0 2.933 1.313 2.933 2.933 0 0.695-0.242 1.334-0.646 1.837l0.004-0.006-12.267 13.333c-0.667 0.533-0.933 0.933-1.333 1.067-0.382 0.225-0.842 0.357-1.333 0.357s-0.951-0.133-1.346-0.364l0.013 0.007c-0.452-0.316-0.846-0.667-1.194-1.060l-0.006-0.007z"></path>
</symbol>
<symbol id="icon-hourglass" viewBox="0 0 32 32">
<path stroke-linejoin="round" stroke-linecap="round" stroke-miterlimit="4" stroke-width="2.6667" d="M24.267 2.667h-16.533c-0.533 0-1.067 0.533-1.067 1.067 0 3.6 1.333 7.067 4 9.6l1.6 1.733 0.267 0.267c0.4 0.533 0.4 1.067 0 1.6l-2 2c-2.317 2.334-3.777 5.521-3.866 9.050l-0 0.017c0 0.667 0.533 1.2 1.067 1.2h16.533c0.533 0 1.067-0.533 1.067-1.067 0-3.6-1.333-7.067-4-9.467l-1.6-1.733-0.267-0.267c-0.166-0.22-0.267-0.498-0.267-0.8s0.1-0.58 0.269-0.803l-0.002 0.003 2-2c2.317-2.334 3.777-5.521 3.866-9.050l0-0.017c0-0.667-0.533-1.2-1.067-1.2z"></path>
</symbol>
<symbol id="icon-arrow-up" viewBox="0 0 32 32">
<path stroke-linejoin="miter" stroke-linecap="round" stroke-miterlimit="4" stroke-width="2.6667" d="M24 20l-8-8-8 8"></path>
</symbol>
<symbol id="icon-arrow-down" viewBox="0 0 32 32">
<path stroke-linejoin="miter" stroke-linecap="round" stroke-miterlimit="4" stroke-width="2.6667" d="M24 12l-8 8-8-8"></path>
</symbol>
<symbol id="icon-arrow-right" viewBox="0 0 32 32">
<path stroke-linejoin="round" stroke-linecap="round" stroke-miterlimit="4" stroke-width="2.6667" d="M5.333 16h21.333M18.667 8l8 8-8 8"></path>
</symbol>
<symbol id="icon-arrow-left" viewBox="0 0 32 32">
<path stroke-linejoin="round" stroke-linecap="round" stroke-miterlimit="4" stroke-width="2.6667" d="M26.667 16h-21.333M13.333 24l-8-8 8-8"></path>
</symbol>
<symbol id="icon-phone" viewBox="0 0 32 32">
<path stroke-linejoin="round" stroke-linecap="round" stroke-miterlimit="4" stroke-width="1.3333" d="M3.067 9.067c0 11.046 8.954 20 20 20v0h2.933c1.694 0 3.067-1.373 3.067-3.067v0-1.867c0-0.667-0.533-1.333-1.2-1.333l-5.867-1.6c-0.667 0-1.333 0-1.6 0.533l-1.333 1.733c-0.24 0.375-0.655 0.62-1.127 0.62-0.17 0-0.333-0.032-0.483-0.090l0.009 0.003c-4.376-1.628-7.779-4.988-9.429-9.224l-0.037-0.109c-0.055-0.141-0.087-0.303-0.087-0.473 0-0.472 0.245-0.886 0.615-1.123l0.005-0.003 1.733-1.333c0.4-0.4 0.667-0.933 0.533-1.6l-1.467-6c-0.13-0.687-0.726-1.2-1.442-1.2-0.009 0-0.017 0-0.026 0l0.001-0h-1.867c-0.041-0.002-0.088-0.003-0.136-0.003-1.62 0-2.933 1.313-2.933 2.933 0 0.048 0.001 0.096 0.003 0.143l-0-0.007v3.067z"></path>
</symbol>
<symbol id="icon-letter" viewBox="0 0 32 32">
<path stroke-linejoin="round" stroke-linecap="round" stroke-miterlimit="4" stroke-width="1.3333" d="M29.067 9.067v13.867c0 1.694-1.373 3.067-3.067 3.067v0h-20c-1.694 0-3.067-1.373-3.067-3.067v-13.867M29.067 9.067c0-1.694-1.373-3.067-3.067-3.067v0h-20c-0.041-0.002-0.088-0.003-0.136-0.003-1.62 0-2.933 1.313-2.933 2.933 0 0.048 0.001 0.096 0.003 0.143l-0-0.007M29.067 9.067v0.267c0 0.015 0 0.033 0 0.050 0 1.102-0.581 2.068-1.454 2.609l-0.013 0.008-10 6c-0.456 0.283-1.008 0.45-1.6 0.45s-1.145-0.168-1.613-0.458l0.013 0.008-10-6c-0.812-0.531-1.34-1.435-1.34-2.463 0-0.072 0.003-0.143 0.008-0.213l-0.001 0.009v-0.267"></path>
</symbol>
<symbol id="icon-location" viewBox="0 0 32 32">
<path stroke-linejoin="round" stroke-linecap="round" stroke-miterlimit="4" stroke-width="1.3333" d="M20 14c0 2.209-1.791 4-4 4s-4-1.791-4-4v0c0-2.209 1.791-4 4-4s4 1.791 4 4v0 0z"></path>
<path stroke-linejoin="round" stroke-linecap="round" stroke-miterlimit="4" stroke-width="1.3333" d="M26 14c0 9.467-10 15.067-10 15.067s-10-5.6-10-15.067c0-5.523 4.477-10 10-10s10 4.477 10 10v0 0z"></path>
</symbol>
</defs>
</svg>
